<svg version="1.1" id="Layer_1" xmlns="http://www.w3.org/2000/svg" x="0px"
	 y="0px"
	 width="100%" viewBox="0 0 512 512" enable-background="new 0 0 512 512" xml:space="preserve">

<path fill="#163A60" opacity="1.000000" stroke="none"
      d="
M57.828712,226.808777 
	C123.739143,169.103073 200.400421,142.844971 288.482910,145.085892 
	C287.540039,152.119797 287.460541,158.663864 285.691711,164.714035 
	C281.550385,178.878922 277.240265,193.061996 271.792877,206.758209 
	C266.511871,220.036011 259.666840,232.687881 253.642700,245.676819 
	C252.204300,248.778198 250.393631,250.432449 246.783966,251.214996 
	C226.817917,255.543457 206.693375,259.421722 187.089478,265.072205 
	C159.616547,272.990784 135.206192,287.336426 112.224785,304.202148 
	C91.997391,319.046692 73.986198,336.241638 57.353096,354.950653 
	C55.273323,357.290009 53.133503,359.575958 50.706219,362.231628 
	C40.740822,343.622986 34.068050,324.674316 30.228184,304.851227 
	C27.835775,292.500549 26.801607,279.887268 25.141306,267.394043 
	C24.509785,262.642059 25.772038,258.726166 29.322355,255.265259 
	C38.850956,245.976624 48.168381,236.471375 57.828712,226.808777 
z"/>
    <path fill="#1F5389" opacity="1.000000" stroke="none"
          d="
M288.330383,46.702103 
	C285.330353,39.802612 282.489105,33.255119 279.072266,25.381212 
	C291.447144,27.783110 303.038971,29.537945 314.374634,32.332108 
	C341.318115,38.973507 366.082977,50.570255 388.988586,66.249435 
	C392.444336,68.614937 394.219574,71.363243 394.905792,75.401657 
	C399.520325,102.557976 401.953705,129.889297 400.811737,157.423264 
	C398.264862,218.830994 382.251892,276.519104 352.266083,330.250061 
	C351.861389,330.975189 351.417542,331.681976 350.941650,332.362061 
	C350.761719,332.619232 350.439087,332.776581 349.417603,333.580933 
	C343.242340,329.428619 336.711212,325.238403 330.391449,320.750519 
	C309.823364,306.144318 293.151672,287.559875 277.174591,268.281586 
	C274.730560,265.332550 272.507538,262.130463 269.705292,259.566803 
	C266.584198,256.711456 267.055206,254.154602 268.663940,250.784332 
	C276.337402,234.708694 284.398041,218.781235 291.221222,202.344543 
	C302.839355,174.357224 306.632111,145.067032 304.283661,114.817917 
	C302.462799,91.364624 297.027710,68.878784 288.330383,46.702103 
z"/>
    <path fill="#FEC139" opacity="1.000000" stroke="none"
          d="
M218.327682,391.890015 
	C230.830246,399.455536 243.051514,407.541107 255.889725,414.486206 
	C290.277985,433.089172 327.045319,444.821930 365.619019,450.995483 
	C369.975342,451.692719 374.311615,452.515503 378.998657,453.340118 
	C285.977295,516.016418 133.348953,498.773468 59.081474,377.544769 
	C76.459007,356.059723 96.136215,336.801086 118.676056,320.174194 
	C130.177521,331.626404 140.356277,343.883423 152.439407,353.826019 
	C165.053253,364.205383 179.194855,372.868530 193.268768,381.277405 
	C200.981873,385.885864 209.934158,388.420319 218.327682,391.890015 
z"/>
    <path fill="#F1F1F1" opacity="1.000000" stroke="none"
          d="
M68.966293,121.934532 
	C80.368874,104.692101 94.762993,90.189705 110.680740,77.206047 
	C143.905777,50.105301 181.889206,33.534035 224.281113,27.396973 
	C235.115814,25.828438 246.162964,25.666105 257.125488,25.117184 
	C258.537659,25.046474 260.704620,26.163446 261.383881,27.370607 
	C278.834076,58.383148 287.839325,91.754715 288.874359,127.298843 
	C288.892639,127.926224 288.686859,128.560135 288.569611,129.290985 
	C206.900146,126.630844 133.182022,149.086502 67.297241,197.628708 
	C66.545830,193.033051 65.858887,188.763580 65.903519,184.501770 
	C66.055183,170.021210 66.289276,155.536453 66.857330,141.067657 
	C67.108406,134.672211 68.236397,128.311188 68.966293,121.934532 
z"/>
    <path fill="#FED45D" opacity="1.000000" stroke="none"
          d="
M442.839355,366.420410 
	C415.326752,362.960144 389.490387,354.217499 364.213684,341.712524 
	C386.340179,302.887390 401.650726,261.830566 409.953949,218.242477 
	C418.284607,174.510483 419.291077,130.575546 412.798584,86.218330 
	C473.229614,136.832306 512.417725,240.123764 472.953491,340.867371 
	C472.506104,341.672638 472.479156,342.013702 472.452240,342.354797 
	C472.452240,342.354797 472.318756,342.409393 472.035522,342.378052 
	C466.189453,347.043030 460.647003,351.763794 455.056915,356.427429 
	C451.017151,359.797699 446.914154,363.092163 442.839355,366.420410 
z"/>
    <path fill="#F1F1F1" opacity="1.000000" stroke="none"
          d="
M281.961914,409.146332 
	C261.357452,400.755859 242.565079,389.177338 224.571869,376.255249 
	C196.475067,356.077026 172.305237,331.907776 151.840866,304.026031 
	C150.954742,302.818726 150.075638,301.605652 149.227585,300.371643 
	C149.055893,300.121796 149.039551,299.765198 148.855835,299.123230 
	C166.095078,289.422638 184.007477,281.346405 203.563675,277.192230 
	C219.171631,273.876770 234.743301,270.377075 250.265808,266.684814 
	C253.165634,265.995026 254.689880,266.534912 256.596161,268.716400 
	C268.648590,282.508942 280.219666,296.807281 293.171631,309.712189 
	C328.439240,344.851501 370.896606,367.327209 419.470673,379.215820 
	C414.350220,382.347839 409.117462,385.217804 403.699097,387.679077 
	C366.423370,404.611359 327.423492,411.732727 286.542969,408.124847 
	C285.057556,407.993774 283.490784,408.784973 281.961914,409.146332 
z"/>
    <path fill="#CBCBCB" opacity="1.000000" stroke="none"
          d="
M282.138062,409.447571 
	C283.490784,408.784973 285.057556,407.993774 286.542969,408.124847 
	C327.423492,411.732727 366.423370,404.611359 403.699097,387.679077 
	C409.117462,385.217804 414.350220,382.347839 419.822968,379.364990 
	C430.061615,380.749847 440.146149,382.436676 450.740417,384.208740 
	C441.807190,398.016022 431.720551,410.312134 420.268646,421.446381 
	C414.198456,427.348175 407.718292,432.841736 401.228180,438.287109 
	C399.907959,439.394806 397.605316,440.163177 395.939026,439.904816 
	C357.005524,433.868500 318.360321,426.681488 282.138062,409.447571 
z"/>
    <path fill="#CACACA" opacity="1.000000" stroke="none"
          d="
M68.657349,122.076653 
	C68.236397,128.311188 67.108406,134.672211 66.857330,141.067657 
	C66.289276,155.536453 66.055183,170.021210 65.903519,184.501770 
	C65.858887,188.763580 66.545830,193.033051 66.963867,197.719803 
	C53.631424,209.834656 40.232616,221.528732 26.047798,233.908798 
	C30.939785,192.391388 44.583755,155.394073 68.657349,122.076653 
z"/>
    <path fill="#FDD35C" opacity="1.000000" stroke="none"
          d="
M218.151917,391.591034 
	C209.934158,388.420319 200.981873,385.885864 193.268768,381.277405 
	C179.194855,372.868530 165.053253,364.205383 152.439407,353.826019 
	C140.356277,343.883423 130.177521,331.626404 119.003021,320.069702 
	C123.961609,315.828674 129.078995,311.904480 134.668060,307.618561 
	C157.808563,340.377533 185.526306,368.215820 218.151917,391.591034 
z"/>
    <path fill="#F9BE38" opacity="1.000000" stroke="none"
          d="
M443.183441,366.606934 
	C446.914154,363.092163 451.017151,359.797699 455.056915,356.427429 
	C460.647003,351.763794 466.189453,347.043030 472.109436,342.360840 
	C468.860107,350.320862 465.363953,358.320892 461.523529,366.152039 
	C460.972870,367.274872 458.735138,368.208923 457.321259,368.152435 
	C452.712585,367.968292 448.123901,367.284790 443.183441,366.606934 
z"/>
    <path fill="#F9BE38" opacity="1.000000" stroke="none"
          d="
M472.651398,342.183228 
	C472.479156,342.013702 472.506104,341.672638 472.739838,341.158752 
	C472.914612,341.327850 472.882599,341.669739 472.651398,342.183228 
z"/>
</svg>