<svg width="46" height="46" viewBox="0 0 46 46" fill="none" xmlns="http://www.w3.org/2000/svg">
<path d="M20.2358 36.2013C30.0318 36.2013 37.973 28.2601 37.973 18.4641C37.973 8.66804 30.0318 0.726807 20.2358 0.726807C10.4398 0.726807 2.49854 8.66804 2.49854 18.4641C2.49854 28.2601 10.4398 36.2013 20.2358 36.2013Z" fill="#FF8D5C"/>
<path d="M25.9767 1.677C29.1412 10.9544 24.1858 21.0405 14.9084 24.205C11.1936 25.4721 7.16353 25.4721 3.44873 24.205C6.62089 33.4747 16.707 38.4177 25.9767 35.2456C35.2464 32.0735 40.1894 21.9872 37.0172 12.7176C36.141 10.1571 34.6906 7.83098 32.777 5.91733C30.8633 4.00368 28.5372 2.55323 25.9767 1.677Z" fill="#FF774D"/>
<path d="M44.6389 31.7848C44.9811 30.8054 45.2438 29.7999 45.4246 28.7783C45.495 28.3734 45.4489 27.9567 45.2916 27.577C45.1343 27.1972 44.8723 26.87 44.5361 26.6335C43.6857 26.0387 42.7888 25.5135 41.854 25.0627L42.5039 28.4238L44.6389 31.7848Z" fill="#B56959"/>
<path d="M18.5313 43.9986C17.0034 43.4112 15.5565 42.6319 14.2253 41.6794C13.8987 41.4437 13.6441 41.1217 13.49 40.7496C13.3359 40.3775 13.2883 39.9698 13.3525 39.5722C13.6196 37.9615 14.09 36.3912 14.7523 34.8989L17.5684 39.4487L18.5313 43.9986Z" fill="#A85B4A"/>
<path d="M21.5441 44.8875C24.7455 45.5517 28.7284 45.5096 33.2418 43.6402C38.5047 41.4602 41.5289 38.0213 43.2648 34.8728L41.8542 28.8885L38.7038 23.8526C35.2496 22.8527 30.6779 22.5583 25.4127 24.7391C20.8991 26.6088 18.0529 29.3957 16.2588 32.1292L18.1484 38.8107L21.5441 44.8875Z" fill="#B56959"/>
<path d="M33.8873 41.503C26.3478 41.5029 20.1878 35.4829 20.0144 27.9453C18.5593 29.1433 17.2932 30.5538 16.2588 32.1294L18.1484 38.8109L21.5441 44.8876C24.7456 45.5517 28.7284 45.5098 33.2418 43.6403C34.9892 42.9259 36.6348 41.9842 38.1359 40.8395C36.7628 41.2803 35.3294 41.5042 33.8873 41.503Z" fill="#A85B4A"/>
<path d="M38.6987 23.8521L43.2637 34.8728C43.8085 33.8837 44.2686 32.8503 44.6391 31.7837L41.8556 25.0639C40.8394 24.5716 39.7833 24.1662 38.6987 23.8521Z" fill="#F2F2FF"/>
<path d="M18.519 43.9933C19.5011 44.3735 20.5128 44.6723 21.5439 44.8867L16.2597 32.1294C15.6821 33.01 15.178 33.9367 14.7524 34.9L18.519 43.9933Z" fill="#CCCCF0"/>
<path d="M8.1452 43.2279C12.3427 43.2279 15.7455 39.8251 15.7455 35.6276C15.7455 31.4301 12.3427 28.0273 8.1452 28.0273C3.94768 28.0273 0.544922 31.4301 0.544922 35.6276C0.544922 39.8251 3.94768 43.2279 8.1452 43.2279Z" fill="#F2F2FF"/>
<path d="M11.5676 28.8394C10.892 34.1716 6.38471 38.187 1.01025 38.2447C2.45671 42.1852 6.8237 44.2071 10.7642 42.7606C14.7048 41.3141 16.7266 36.9472 15.2802 33.0066C14.6158 31.197 13.2887 29.7074 11.5676 28.8394Z" fill="#E6E6FF"/>
<path d="M44.8493 26.1885C43.975 25.5764 43.0526 25.0362 42.0912 24.573C41.0524 24.0702 39.9733 23.6557 38.8651 23.3339C38.8616 23.3328 38.8586 23.3308 38.855 23.3298C38.5475 23.2407 38.238 23.1592 37.9266 23.0851C38.3192 21.5761 38.5177 20.0232 38.5171 18.4639C38.5171 8.38347 30.3161 0.182373 20.2356 0.182373C10.1551 0.182373 1.95407 8.38355 1.95407 18.464C1.94779 21.9149 2.92378 25.2964 4.76798 28.2132C4.16659 28.4887 3.60074 28.8359 3.08279 29.2473C-0.440989 32.0429 -1.03117 37.1659 1.76445 40.6895C4.56008 44.2132 9.68291 44.8035 13.2067 42.0079C13.3074 41.9279 13.4063 41.8456 13.5032 41.761C13.8319 42.1169 22.031 48.8731 33.4499 44.143C38.0294 42.2463 41.4919 39.2157 43.7413 35.1357L43.7405 35.1353C44.2997 34.1197 44.7722 33.0586 45.1527 31.9634C45.5049 30.9563 45.7752 29.9224 45.9609 28.8717C46.0477 28.3652 45.9893 27.8444 45.7927 27.3696C45.596 26.8947 45.2689 26.4853 44.8493 26.1885ZM44.8884 28.685C44.8007 29.1861 44.6916 29.6832 44.5616 30.175L42.9384 26.2562C43.3781 26.512 43.8067 26.7865 44.223 27.0788C44.4742 27.2565 44.6699 27.5016 44.7877 27.7858C44.9054 28.07 44.9404 28.3818 44.8884 28.685ZM36.8596 22.8605C36.4366 22.7833 36.0111 22.72 35.5839 22.6708C35.4444 16.2411 32.0824 12.3862 29.7351 9.56375C28.6208 8.22399 27.6342 7.03604 27.0582 5.85402C29.7702 5.99094 31.9008 6.83118 33.7457 7.84188C35.392 9.93331 36.5302 12.3784 37.0705 14.9847C37.6109 17.5909 37.5387 20.2869 36.8596 22.8605ZM26.9792 23.5817C26.868 19.2838 25.9459 12.7583 21.3166 6.52634C22.7998 6.12237 24.3248 5.89208 25.8612 5.84008C26.454 7.3192 27.5932 8.69075 28.8982 10.2598C31.3923 13.2587 34.3385 16.8032 34.498 22.5766C31.9509 22.4379 29.4004 22.7788 26.9792 23.5817ZM31.8039 5.75603C30.1556 5.1215 28.4104 4.77503 26.6446 4.73174C26.4739 3.99781 26.4622 3.23585 26.6104 2.49704C28.5225 3.26412 30.2815 4.36793 31.8039 5.75603ZM25.5761 2.1212C25.3798 2.9823 25.3648 3.87483 25.5322 4.74202C23.8566 4.82818 22.1972 5.1126 20.5885 5.58932C19.4205 4.13452 18.0947 2.8138 16.6354 1.65139C19.6049 1.01653 22.6895 1.17862 25.5761 2.1212ZM15.2785 2.00057C15.8515 2.40001 17.5723 3.68612 19.4626 5.93615C18.3365 6.30737 16.6671 6.85008 14.1552 8.49861C12.0933 6.62772 9.73526 6.27984 8.06243 6.33454C10.072 4.31493 12.5515 2.82575 15.2785 2.00057ZM6.97159 7.53643C8.26502 7.33105 10.9523 7.21459 13.2317 9.13696C7.46832 13.3179 4.83505 19.1314 3.76007 23.3891C2.12243 17.8998 3.32666 11.9556 6.97159 7.53643ZM4.46087 25.3132C4.94636 22.523 6.87744 15.0091 14.0182 9.91284C15.4857 11.6522 15.0323 13.4862 14.3106 16.4046C13.5251 19.581 12.5215 23.6468 13.5447 29.5367C12.5085 28.6163 11.2545 27.9756 9.90148 27.6754C8.54844 27.3752 7.14115 27.4254 5.81291 27.8212C5.29338 27.0242 4.84113 26.1853 4.46087 25.3132ZM1.13533 34.8202C1.3163 33.2097 2.05025 31.7119 3.21204 30.582C3.35592 30.9808 3.47698 31.3875 3.57464 31.8L2.78046 32.2899C2.16171 32.6717 2.74554 33.59 3.35192 33.2164L3.79953 32.9403C3.88401 33.4894 3.93801 34.0427 3.96144 34.5978L3.17929 34.5078C2.46447 34.4257 2.33896 35.5068 3.05474 35.5891L3.97033 35.6946C3.95188 36.3879 3.89079 37.0794 3.78742 37.7652L3.06885 37.3516C2.44461 36.9917 1.90233 37.9359 2.5257 38.2949L3.57934 38.9015C3.45634 39.4715 3.30656 40.0354 3.13052 40.5914C2.38515 39.8415 1.81863 38.9331 1.47317 37.9339C1.12772 36.9346 1.01223 35.8703 1.13533 34.8202ZM7.33767 42.6373C6.14268 42.5019 5.00256 42.0616 4.02677 41.3586C4.18799 40.8779 4.38492 40.2492 4.56887 39.4709L5.02109 39.7313C5.63932 40.0876 6.19432 39.1508 5.56424 38.7879L4.79977 38.3478C4.94696 37.5126 5.03538 36.6681 5.06438 35.8205L5.87641 35.9141C6.59141 35.9967 6.71692 34.915 6.00096 34.8327L5.06508 34.725C5.04088 33.9174 4.95489 33.1129 4.80787 32.3184L5.86239 31.668C6.47495 31.2901 5.90445 30.3636 5.29093 30.7414L4.55172 31.1974C4.43029 30.7385 4.27849 30.2881 4.09732 29.8493C7.0215 27.7974 11.0187 28.2591 13.398 30.9236C13.1228 31.309 12.8733 31.7121 12.6514 32.1305L12.0351 31.5183C11.5241 31.0102 10.7573 31.7834 11.2679 32.2905L12.1477 33.1644C11.8241 33.9045 11.5576 34.6682 11.3505 35.449L10.4137 35.341C9.69885 35.2578 9.57316 36.3401 10.2891 36.4224L11.1031 36.5162C10.938 37.348 10.8317 38.1904 10.7848 39.0371L9.93985 39.292C9.24793 39.5009 9.56724 40.5419 10.2543 40.3343L10.7541 40.1835C10.7562 40.9853 10.803 41.6179 10.853 42.1447C9.74276 42.6073 8.53229 42.7769 7.33767 42.6373ZM11.8997 41.601C11.8554 41.0194 11.8385 40.4361 11.8492 39.8529L13.0106 39.5025C13.7013 39.294 13.3838 38.2523 12.6962 38.4602L11.9059 38.6986C11.9618 38.0078 12.0601 37.3211 12.2003 36.6424L13.1108 36.7473C13.8258 36.8299 13.9513 35.7482 13.2353 35.6659L12.4589 35.5765C12.6079 35.0427 12.786 34.5175 12.9924 34.0032L13.3608 34.3691C13.8652 34.8704 14.6449 34.1102 14.1279 33.5969L13.4698 32.943C13.6576 32.5647 13.8663 32.1971 14.095 31.8419C16.1881 35.1235 15.2247 39.4805 11.9431 41.5736L11.8997 41.601ZM14.2737 40.9916C14.885 40.2967 15.3719 39.5015 15.713 38.6411L17.5056 42.9688C15.9755 42.2523 14.5545 41.3117 14.2737 40.9916ZM18.9319 43.5679L16.1837 36.9333C16.3666 35.814 16.312 34.6688 16.0237 33.5719C16.0704 33.4883 16.1162 33.4042 16.1642 33.3212L20.6336 44.1113C20.0581 43.9572 19.4902 43.7759 18.9319 43.5679ZM33.0333 43.1374C29.3105 44.6795 25.5782 45.1067 21.9358 44.4103L16.8743 32.1908C17.6124 31.1032 18.4661 30.0986 19.4205 29.1946C19.9439 28.6995 19.1952 27.9088 18.6724 28.4039C17.5866 29.4313 16.6238 30.5813 15.8035 31.8309C15.8015 31.834 15.8004 31.8374 15.7984 31.8406C15.7129 31.971 15.6292 32.1025 15.5471 32.2351C15.3963 31.9087 15.224 31.5926 15.0315 31.2888C13.4851 24.7842 14.4009 20.5738 15.3672 16.6661C16.0828 13.7721 16.6573 11.442 14.9218 9.30045C17.3571 7.73153 19.0466 7.20571 20.1954 6.84852C24.8733 12.9444 25.8135 19.4306 25.8943 23.9639C24.6179 24.4445 23.3861 25.0365 22.2134 25.7331C21.5884 26.1065 22.1606 27.0328 22.7718 26.6675C26.085 24.6882 31.7749 22.5125 38.2966 24.3045L42.6594 34.8373C40.5297 38.5808 37.2929 41.3729 33.0333 43.1374ZM43.3161 33.5776L39.6518 24.7309C40.257 24.9462 40.8513 25.1913 41.4325 25.4651L44.0563 31.7994C43.8389 32.4039 43.5918 32.9974 43.3161 33.5776Z" fill="black"/>
<path d="M20.7108 27.9401C21.0114 27.9401 21.2551 27.6964 21.2551 27.3958C21.2551 27.0952 21.0114 26.8516 20.7108 26.8516C20.4102 26.8516 20.1665 27.0952 20.1665 27.3958C20.1665 27.6964 20.4102 27.9401 20.7108 27.9401Z" fill="black"/>
<path d="M36.5361 26.9524C35.348 27.1474 34.1438 27.409 32.9234 27.7375L32.5665 26.876C32.291 26.2112 31.285 26.6268 31.5608 27.2925L31.8687 28.0359C30.5918 28.4158 29.3055 28.8652 28.0096 29.3842L27.7126 28.667C27.4369 28.0009 26.4316 28.4189 26.7069 29.0835L27.0039 29.8003C25.7237 30.3478 24.4963 30.9396 23.3218 31.5757L23.014 30.8327C22.7378 30.166 21.7334 30.5855 22.0083 31.2492L22.3648 32.1099C21.649 32.5221 20.9467 32.9576 20.2592 33.4156C19.6527 33.82 20.272 34.7159 20.8632 34.321C21.4914 33.9026 22.1324 33.5037 22.7853 33.1249L23.1944 34.1125C23.4695 34.777 24.477 34.3643 24.2 33.696L23.7405 32.5866C24.9094 31.9497 26.136 31.3561 27.4204 30.8061L27.8929 31.9468C28.1681 32.6113 29.1756 32.1986 28.8986 31.5303L28.4262 30.3897C29.7218 29.8707 31.0088 29.423 32.2874 29.0466L32.7468 30.1558C33.0223 30.8207 34.0292 30.4071 33.7525 29.7393L33.3434 28.7516C34.48 28.4509 35.603 28.2092 36.7125 28.0263C37.4226 27.9099 37.2478 26.8361 36.5361 26.9524Z" fill="black"/>
</svg>
