<svg version="1.1" id="Layer_1" xmlns="http://www.w3.org/2000/svg" x="0px"
     y="0px"
     width="100%" viewBox="0 0 512 512" enable-background="new 0 0 512 512" xml:space="preserve">
<path fill="#FF5D00" opacity="1.000000" stroke="none"
      d="
M280.000000,513.000000 
	C267.645782,513.000000 255.291550,513.000000 242.340576,512.652527 
	C235.164200,510.819122 230.463287,506.509003 225.982040,501.479523 
	C223.534576,496.127960 221.109573,491.131805 219.048492,485.982788 
	C227.854477,482.866486 236.301437,479.916992 244.737671,476.937134 
	C270.544830,467.821442 294.763397,455.448608 317.765686,440.724243 
	C343.687439,424.131012 367.309113,404.773071 388.433411,382.259674 
	C403.236786,366.482880 416.589691,349.662079 428.676147,331.788086 
	C430.202515,329.530792 430.912354,326.721375 432.365601,324.046417 
	C438.482666,321.936035 444.234619,319.947021 450.363708,317.933716 
	C466.111420,311.755402 481.470245,305.571625 496.864136,299.476532 
	C499.443329,298.455322 502.174774,297.818695 505.015839,297.332764 
	C509.214478,299.110626 509.168060,302.481964 508.923523,305.827820 
	C508.794312,307.595490 508.360535,309.354065 507.934631,311.084869 
	C499.096771,347.001770 485.189270,380.500732 462.536346,410.195221 
	C449.270203,427.585052 434.504639,443.343079 417.480072,456.977173 
	C393.468353,476.206940 367.012970,490.873077 337.583252,500.302643 
	C322.222748,505.224335 306.817078,509.400940 290.752319,511.052216 
	C287.139618,511.423523 283.582642,512.336365 280.000000,513.000000 
z"/>

    M226.004501,501.834900
    C230.463287,506.509003 235.164200,510.819122 241.871918,512.652527
    C161.740707,513.000000 81.481415,513.000000 1.000000,513.000000
    C1.000000,435.312592 1.000000,357.624939 1.376106,279.664185
    C4.529528,295.330139 7.161935,311.297455 10.250429,327.175995
    C10.681833,329.393921 13.354356,331.175964 14.979609,333.555237
    C11.983956,339.256073 15.955271,343.563507 17.143066,348.224335
    C17.977917,351.500244 20.258842,353.542084 24.005215,353.608093
    C24.544542,358.751129 24.020834,363.913055 25.841976,368.040253
    C29.574596,376.499329 34.175140,384.651581 39.149323,392.464783
    C43.935940,399.983337 49.644611,406.914825 54.980377,414.455627
    C57.931847,418.333496 60.800915,421.902985 63.779217,425.378876
    C74.976875,438.447266 87.208473,450.450562 101.195877,460.516205
    C102.733345,461.622681 105.591553,460.893829 107.912827,461.383667
    C109.081161,468.052795 114.616547,470.224792 118.981842,473.411133
    C122.244865,475.792847 125.690727,476.402557 128.909210,473.392761
    C129.746048,477.431519 130.510956,481.088837 135.115265,482.420166
    C137.667282,484.085754 139.991119,485.574646 142.456085,486.773407
    C160.212738,495.409058 178.735443,502.011078 197.875900,506.739441
    C200.595093,507.411194 203.943375,505.536285 207.319809,504.988556
    C210.167206,506.758087 212.504120,509.179596 215.262054,509.838165
    C221.541168,511.337585 224.019272,506.680450 226.004501,501.834900
    z"/>

    M280.468658,513.000000
    C283.582642,512.336365 287.139618,511.423523 290.752319,511.052216
    C306.817078,509.400940 322.222748,505.224335 337.583252,500.302643
    C367.012970,490.873077 393.468353,476.206940 417.480072,456.977173
    C434.504639,443.343079 449.270203,427.585052 462.536346,410.195221
    C485.189270,380.500732 499.096771,347.001770 507.934631,311.084869
    C508.360535,309.354065 508.794312,307.595490 508.923523,305.827820
    C509.168060,302.481964 509.214478,299.110626 505.176208,297.013885
    C509.491150,294.308136 512.540405,290.797913 511.759369,286.123383
    C511.040894,281.823029 508.391510,277.981720 503.157898,277.532715
    C506.539734,273.487946 509.769867,269.743988 513.000000,266.000000
    C513.000000,348.258240 513.000000,430.516479 513.000000,513.000000
    C435.645905,513.000000 358.291626,513.000000 280.468658,513.000000
    z"/>

    M1.000001,235.000000
    C1.000000,157.072952 1.000000,79.145912 1.000000,1.000000
    C78.687424,1.000000 156.375061,1.000000 234.333328,1.378040
    C222.404755,3.559386 210.205536,5.362692 197.626709,7.228285
    C169.787933,14.253716 143.894318,24.899303 119.873863,40.013042
    C100.389168,52.272877 83.361374,67.416870 67.431808,83.930504
    C64.338142,87.137596 62.332836,90.323906 62.648407,94.804443
    C61.323544,94.822456 60.124008,94.522095 59.403088,94.978218
    C53.949821,98.428429 50.577534,103.274895 49.626442,109.911469
    C47.468315,111.458763 45.241428,112.634003 43.958008,114.469086
    C27.921959,137.398239 17.807117,163.093231 9.223492,189.489166
    C7.496486,194.799957 7.776587,199.692429 11.612858,203.912247
    C4.591708,206.306870 2.213089,213.376190 4.974257,222.333649
    C3.852185,224.507462 2.657578,226.267624 2.077538,228.211212
    C1.428046,230.387497 1.335116,232.729889 1.000001,235.000000
    z"/>

    M279.000000,1.000000
    C356.927032,1.000000 434.854095,1.000000 513.000000,1.000000
    C513.000000,78.687424 513.000000,156.375061 512.613159,234.345413
    C511.153351,226.396515 510.234283,218.141266 508.976501,209.937973
    C505.997162,190.507080 499.922668,171.965500 491.819214,154.135254
    C490.458374,151.140976 486.673340,149.248428 484.159607,146.514572
    C484.876221,145.088928 485.849823,144.027634 485.938812,142.896744
    C486.407898,136.935379 478.031433,127.399475 472.171875,126.501099
    C472.716217,123.782211 474.300537,120.517632 473.296753,119.143242
    C464.815460,107.530647 455.861420,96.263275 446.920654,84.586021
    C437.529266,75.575523 428.266602,66.871185 418.693237,58.016998
    C404.935059,48.872478 391.487579,39.877815 377.874054,30.571568
    C366.428864,25.313047 355.298035,19.981005 343.817047,15.558062
    C336.481506,12.732124 328.628052,11.250549 320.696991,9.165352
    C319.648102,9.439046 318.909027,9.713634 318.091370,9.603472
    C317.570862,8.564093 317.202881,7.407548 316.676025,7.330001
    C308.550385,6.133936 300.582581,1.621563 291.990875,5.648937
    C289.863281,4.204509 288.010651,2.779458 285.915771,2.082434
    C283.732208,1.355907 281.315033,1.331427 279.000000,1.000000
    z"/>
    <path fill="#FF5E01" opacity="1.000000" stroke="none"
          d="
M484.008423,146.846817 
	C486.673340,149.248428 490.458374,151.140976 491.819214,154.135254 
	C499.922668,171.965500 505.997162,190.507080 508.976501,209.937973 
	C510.234283,218.141266 511.153351,226.396515 512.613159,234.814072 
	C513.000000,245.020889 513.000000,255.041794 513.000000,265.531372 
	C509.769867,269.743988 506.539734,273.487946 502.790894,277.608948 
	C484.476898,285.525818 466.681641,293.065582 448.500702,300.691345 
	C445.108307,301.648590 442.101593,302.519867 439.071594,302.978424 
	C439.848694,300.409302 440.551147,298.210449 441.464844,296.103180 
	C448.993500,278.739471 457.788635,261.804779 463.789429,243.930832 
	C470.459900,224.062088 475.150055,203.462952 479.617981,182.945648 
	C482.170868,171.222488 482.563721,159.028946 483.919617,146.985474 
	C483.910126,146.923782 484.008423,146.846817 484.008423,146.846817 
z"/>
    <path fill="#FF8B19" opacity="1.000000" stroke="none"
          d="
M1.000001,235.468658 
	C1.335116,232.729889 1.428046,230.387497 2.077538,228.211212 
	C2.657578,226.267624 3.852185,224.507462 5.288912,222.439240 
	C6.518200,222.627472 7.308201,222.952744 7.939291,223.471375 
	C21.391966,234.527130 34.761402,245.685532 48.305210,256.628204 
	C52.329376,259.879486 53.255978,263.513031 51.124767,267.992310 
	C43.593334,283.821594 36.369366,299.815338 28.238544,315.332611 
	C24.844217,321.810516 19.465754,327.248779 14.989451,333.159760 
	C13.354356,331.175964 10.681833,329.393921 10.250429,327.175995 
	C7.161935,311.297455 4.529528,295.330139 1.376106,279.195526 
	C1.000000,264.645782 1.000000,250.291550 1.000001,235.468658 
z"/>
    <path fill="#FF8C1A" opacity="1.000000" stroke="none"
          d="
M278.531342,1.000000 
	C281.315033,1.331427 283.732208,1.355907 285.915771,2.082434 
	C288.010651,2.779458 289.863281,4.204509 291.831909,5.953835 
	C290.118378,8.131258 288.450043,9.731529 286.663696,11.187065 
	C272.442871,22.774549 258.199677,34.334576 243.659561,46.044281 
	C240.894623,48.414398 238.433426,50.643265 235.974487,52.506264 
	C235.843063,51.495262 235.868591,50.756512 235.552383,50.218693 
	C227.925217,37.246098 218.416122,25.848814 207.041382,15.977777 
	C203.869461,13.225163 201.009430,10.113150 198.006317,7.166004 
	C210.205536,5.362692 222.404755,3.559386 234.801987,1.378040 
	C249.354233,1.000000 263.708466,1.000000 278.531342,1.000000 
z"/>
    <path fill="#614943" opacity="1.000000" stroke="none"
          d="
M225.982040,501.479523 
	C224.019272,506.680450 221.541168,511.337585 215.262054,509.838165 
	C212.504120,509.179596 210.167206,506.758087 207.316681,504.611023 
	C202.347733,493.719025 197.701218,483.352997 193.027313,472.607361 
	C190.586334,464.821655 188.172745,457.415619 185.705414,449.638123 
	C183.789749,441.843842 181.927826,434.420990 180.073212,426.563538 
	C178.830566,415.396545 177.580612,404.664185 176.348175,393.467712 
	C176.714737,379.713501 177.063782,366.423492 177.591797,352.777313 
	C178.736496,345.858948 179.546951,339.269104 180.708771,332.741791 
	C182.045624,325.231110 181.112747,323.281677 174.036270,320.611877 
	C170.020950,319.097015 165.988007,317.628906 161.972931,315.704315 
	C161.451279,309.731323 159.134491,304.054871 163.627655,298.905731 
	C168.546936,300.451080 173.097687,301.966492 177.645660,303.490082 
	C185.134659,305.998993 186.582901,305.092010 189.751434,297.946960 
	C196.657974,282.372650 202.995087,266.456451 211.145447,251.543823 
	C223.715591,228.544373 240.326599,208.476456 260.022095,191.478241 
	C260.405731,199.134521 260.782928,206.372513 261.075256,213.915833 
	C250.962082,226.983154 240.332565,239.325882 231.063583,252.617416 
	C220.414490,267.888031 212.732880,284.854370 206.759903,302.523804 
	C204.609451,308.885345 206.018997,311.576935 212.379135,313.028137 
	C217.858078,314.278259 223.407852,315.217865 229.235229,316.515869 
	C242.030716,318.433838 254.517288,320.130737 267.352051,321.888672 
	C268.843384,322.146912 269.986481,322.344147 271.091431,323.049438 
	C271.038055,328.950378 271.022858,334.343231 270.593079,339.785828 
	C257.842224,338.231628 245.475037,336.830658 233.180054,334.956055 
	C224.175491,333.583130 215.277451,331.523865 206.309036,329.896698 
	C201.563751,329.035736 198.761429,330.961670 197.809952,335.911987 
	C194.626816,352.473083 193.143570,369.141418 194.035278,386.462769 
	C194.925140,396.981506 195.869690,407.037415 196.832947,417.517395 
	C197.608231,421.960327 198.364822,425.979218 199.089630,430.394592 
	C200.087509,434.859650 201.117188,438.928192 202.135757,443.372925 
	C203.404297,447.502319 204.683914,451.255432 205.968109,455.391663 
	C207.537598,459.880859 209.102539,463.986969 210.748718,468.462250 
	C213.448181,474.599487 216.066376,480.367554 218.684570,486.135620 
	C221.109573,491.131805 223.534576,496.127960 225.982040,501.479523 
z"/>
    <path fill="#FF6404" opacity="1.000000" stroke="none"
          d="
M219.048508,485.982788 
	C216.066376,480.367554 213.448181,474.599487 211.157928,468.405792 
	C215.293320,466.832703 219.131668,465.778137 222.903168,464.522705 
	C247.203125,456.433777 270.676300,446.565308 292.904755,433.663147 
	C317.678253,419.283813 340.870239,402.715759 361.319519,382.792023 
	C375.162384,369.304871 387.266663,354.020691 399.944366,339.363708 
	C401.866302,337.141693 402.677368,333.958832 404.392395,331.123108 
	C413.855164,328.739777 422.927856,326.453766 432.000549,324.167786 
	C430.912354,326.721375 430.202515,329.530792 428.676147,331.788086 
	C416.589691,349.662079 403.236786,366.482880 388.433411,382.259674 
	C367.309113,404.773071 343.687439,424.131012 317.765686,440.724243 
	C294.763397,455.448608 270.544830,467.821442 244.737671,476.937134 
	C236.301437,479.916992 227.854477,482.866486 219.048508,485.982788 
z"/>
    <path fill="#563D3A" opacity="1.000000" stroke="none"
          d="
M432.365601,324.046417 
	C422.927856,326.453766 413.855164,328.739777 403.999023,331.119781 
	C397.143921,332.529877 391.072266,333.845978 384.594849,335.105347 
	C380.461884,335.633301 376.734650,336.218018 373.005066,336.350098 
	C373.003845,330.331238 373.004944,324.765045 373.427490,319.121185 
	C380.899628,317.640778 387.950378,316.238068 395.403870,314.893707 
	C410.236053,311.098389 424.665466,307.244751 439.094879,303.391113 
	C442.101593,302.519867 445.108307,301.648590 448.569397,301.140930 
	C449.344757,306.989014 449.665680,312.473511 449.986603,317.958008 
	C444.234619,319.947021 438.482666,321.936035 432.365601,324.046417 
z"/>
    <path fill="#533A38" opacity="1.000000" stroke="none"
          d="
M450.363708,317.933716 
	C449.665680,312.473511 449.344757,306.989014 448.955139,301.054932 
	C466.681641,293.065582 484.476898,285.525818 502.639191,277.909760 
	C508.391510,277.981720 511.040894,281.823029 511.759369,286.123383 
	C512.540405,290.797913 509.491150,294.308136 504.996246,296.685486 
	C502.174774,297.818695 499.443329,298.455322 496.864136,299.476532 
	C481.470245,305.571625 466.111420,311.755402 450.363708,317.933716 
z"/>
    <path fill="#634B45" opacity="1.000000" stroke="none"
          d="
M163.257904,298.879395 
	C159.134491,304.054871 161.451279,309.731323 161.588348,315.671814 
	C151.309097,312.299988 141.453476,308.446381 131.528290,304.781128 
	C125.903641,302.704010 123.107788,304.287170 121.799782,310.134979 
	C121.152855,313.027222 120.706169,315.990021 120.473824,318.944855 
	C119.372070,332.956177 118.375420,346.975769 117.247620,361.453766 
	C117.491676,374.609497 117.829445,387.303833 118.114990,400.426819 
	C118.386726,404.612610 118.583405,408.386078 119.061691,412.123505 
	C119.996193,419.426086 121.088036,426.708557 122.071991,434.424072 
	C123.406464,442.565948 124.783699,450.283112 126.120285,458.398804 
	C127.000366,463.534302 127.921104,468.271179 128.841843,473.008087 
	C125.690727,476.402557 122.244865,475.792847 118.981842,473.411133 
	C114.616547,470.224792 109.081161,468.052795 107.973877,460.953247 
	C105.922508,446.103119 103.885719,432.050903 101.875031,417.578308 
	C101.610321,415.721802 101.106117,414.292267 101.061554,412.848511 
	C100.589844,397.567169 100.191299,382.283600 99.846207,366.536957 
	C100.028046,343.824890 101.937576,321.734558 105.788895,299.819336 
	C106.563927,295.409119 105.416756,292.107330 101.265869,289.823486 
	C93.130348,285.347260 85.155304,280.579803 77.031075,276.082397 
	C75.194733,275.065857 73.019730,274.661011 71.000397,273.507507 
	C71.000122,266.882843 71.000015,260.725220 71.000008,254.567612 
	C70.999992,213.794266 70.953194,173.020752 71.117554,132.248062 
	C71.127296,129.829819 72.832848,127.418388 73.859222,125.392029 
	C78.754868,143.985397 81.194801,162.555115 81.882889,181.314499 
	C82.690063,203.320312 80.402985,225.094147 75.421432,246.550842 
	C74.285446,251.443771 75.531151,254.871048 79.974052,257.413544 
	C86.752121,261.292358 93.301346,265.570923 100.076744,269.454651 
	C107.688179,273.817596 110.476753,272.364563 113.072479,264.084839 
	C118.871681,245.586685 124.354019,226.952316 131.118652,208.803284 
	C139.182648,187.168106 149.314819,166.411423 162.053452,147.096344 
	C162.239792,155.022369 161.998749,162.717621 162.065109,170.410233 
	C162.088608,173.135742 162.860992,175.854782 163.202271,178.897949 
	C158.025787,190.575760 152.158417,201.656631 148.024658,213.350327 
	C140.908173,233.481583 134.730164,253.951126 128.456711,274.370392 
	C126.208206,281.688995 127.579056,283.951019 134.377304,286.827667 
	C143.983963,290.892670 153.629166,294.866577 163.257904,298.879395 
z"/>
    <path fill="#654D46" opacity="1.000000" stroke="none"
          d="
M73.749268,125.003784 
	C72.832848,127.418388 71.127296,129.829819 71.117554,132.248062 
	C70.953194,173.020752 70.999992,213.794266 71.000008,254.567612 
	C71.000015,260.725220 71.000122,266.882843 70.698418,273.672699 
	C68.397247,277.033691 65.711098,279.491089 64.508614,282.534668 
	C55.964764,304.159912 44.721420,324.225525 30.794468,342.825775 
	C28.933891,345.310669 27.484877,348.103729 25.597374,350.949158 
	C24.900833,351.815674 24.452198,352.487152 24.003563,353.158630 
	C20.258842,353.542084 17.977917,351.500244 17.143066,348.224335 
	C15.955271,343.563507 11.983956,339.256073 14.979609,333.555237 
	C19.465754,327.248779 24.844217,321.810516 28.238544,315.332611 
	C36.369366,299.815338 43.593334,283.821594 51.124767,267.992310 
	C53.255978,263.513031 52.329376,259.879486 48.305210,256.628204 
	C34.761402,245.685532 21.391966,234.527130 7.939291,223.471375 
	C7.308201,222.952744 6.518200,222.627472 5.487562,222.106552 
	C2.213089,213.376190 4.591708,206.306870 11.915127,204.070496 
	C14.880397,206.087555 17.180742,207.998993 19.450041,209.946594 
	C29.295124,218.395950 39.032875,226.974091 49.009022,235.265533 
	C54.574612,239.891220 59.924759,238.283859 60.732410,231.567154 
	C62.415783,217.567612 64.857391,203.453079 64.446846,189.460327 
	C63.938446,172.132019 61.482914,154.774689 58.633560,137.635223 
	C57.057606,128.155518 52.958080,119.095337 49.996117,109.846046 
	C50.577534,103.274895 53.949821,98.428429 59.403088,94.978218 
	C60.124008,94.522095 61.323544,94.822456 62.960064,94.984077 
	C66.995567,105.131721 70.372414,115.067757 73.749268,125.003784 
z"/>
    <path fill="#FF7D11" opacity="1.000000" stroke="none"
          d="
M24.005215,353.608093 
	C24.452198,352.487152 24.900833,351.815674 25.808414,351.263672 
	C26.824306,351.735138 27.338369,352.210144 27.944386,352.421478 
	C51.224216,360.540619 74.854698,366.947296 99.772598,367.000641 
	C100.191299,382.283600 100.589844,397.567169 101.061554,412.848511 
	C101.106117,414.292267 101.610321,415.721802 101.421082,417.578857 
	C90.180138,417.037628 79.421051,416.054779 68.657532,415.123199 
	C64.092537,414.728088 59.518223,414.440643 54.948143,414.104279 
	C49.644611,406.914825 43.935940,399.983337 39.149323,392.464783 
	C34.175140,384.651581 29.574596,376.499329 25.841976,368.040253 
	C24.020834,363.913055 24.544542,358.751129 24.005215,353.608093 
z"/>
    <path fill="#FF6A07" opacity="1.000000" stroke="none"
          d="
M128.909210,473.392761 
	C127.921104,468.271179 127.000366,463.534302 126.542252,458.398560 
	C134.065643,457.334839 141.165253,456.943085 148.178635,455.945282 
	C160.732864,454.159210 173.235153,452.008057 185.759155,450.009552 
	C188.172745,457.415619 190.586334,464.821655 192.615707,472.619171 
	C177.118332,475.342804 162.002472,477.657745 146.893829,480.018768 
	C142.901947,480.642578 138.932297,481.408508 134.952438,482.109161 
	C130.510956,481.088837 129.746048,477.431519 128.909210,473.392761 
z"/>
    <path fill="#FF6203" opacity="1.000000" stroke="none"
          d="
M135.115265,482.420166 
	C138.932297,481.408508 142.901947,480.642578 146.893829,480.018768 
	C162.002472,477.657745 177.118332,475.342804 192.643097,472.998779 
	C197.701218,483.352997 202.347733,493.719025 206.997375,504.462585 
	C203.943375,505.536285 200.595093,507.411194 197.875900,506.739441 
	C178.735443,502.011078 160.212738,495.409058 142.456085,486.773407 
	C139.991119,485.574646 137.667282,484.085754 135.115265,482.420166 
z"/>
    <path fill="#FE740D" opacity="1.000000" stroke="none"
          d="
M54.980377,414.455627 
	C59.518223,414.440643 64.092537,414.728088 68.657532,415.123199 
	C79.421051,416.054779 90.180138,417.037628 101.394974,417.999207 
	C103.885719,432.050903 105.922508,446.103119 107.898247,460.585815 
	C105.591553,460.893829 102.733345,461.622681 101.195877,460.516205 
	C87.208473,450.450562 74.976875,438.447266 63.779217,425.378876 
	C60.800915,421.902985 57.931847,418.333496 54.980377,414.455627 
z"/>
    <path fill="#FF911D" opacity="1.000000" stroke="none"
          d="
M73.859222,125.392029 
	C70.372414,115.067757 66.995567,105.131721 63.307056,95.016060 
	C62.332836,90.323906 64.338142,87.137596 67.431808,83.930504 
	C83.361374,67.416870 100.389168,52.272877 119.873863,40.013042 
	C143.894318,24.899303 169.787933,14.253716 197.626694,7.228291 
	C201.009430,10.113150 203.869461,13.225163 207.041382,15.977777 
	C218.416122,25.848814 227.925217,37.246098 235.552383,50.218693 
	C235.868591,50.756512 235.843063,51.495262 235.820831,52.808220 
	C233.122894,55.875328 230.371948,58.090878 228.073257,60.704224 
	C214.804703,75.789169 200.973969,90.447556 188.655807,106.279152 
	C178.716644,119.053162 170.646515,133.281418 161.747223,146.864532 
	C149.314819,166.411423 139.182648,187.168106 131.118652,208.803284 
	C124.354019,226.952316 118.871681,245.586685 113.072479,264.084839 
	C110.476753,272.364563 107.688179,273.817596 100.076744,269.454651 
	C93.301346,265.570923 86.752121,261.292358 79.974052,257.413544 
	C75.531151,254.871048 74.285446,251.443771 75.421432,246.550842 
	C80.402985,225.094147 82.690063,203.320312 81.882889,181.314499 
	C81.194801,162.555115 78.754868,143.985397 73.859222,125.392029 
z"/>
    <path fill="#FE901D" opacity="1.000000" stroke="none"
          d="
M49.626442,109.911469 
	C52.958080,119.095337 57.057606,128.155518 58.633560,137.635223 
	C61.482914,154.774689 63.938446,172.132019 64.446846,189.460327 
	C64.857391,203.453079 62.415783,217.567612 60.732410,231.567154 
	C59.924759,238.283859 54.574612,239.891220 49.009022,235.265533 
	C39.032875,226.974091 29.295124,218.395950 19.450041,209.946594 
	C17.180742,207.998993 14.880397,206.087555 12.292072,204.001221 
	C7.776587,199.692429 7.496486,194.799957 9.223492,189.489166 
	C17.807117,163.093231 27.921959,137.398239 43.958008,114.469086 
	C45.241428,112.634003 47.468315,111.458763 49.626442,109.911469 
z"/>
    <path fill="#FF8918" opacity="1.000000" stroke="none"
          d="
M318.169952,9.988219 
	C318.909027,9.713634 319.648102,9.439046 320.739655,9.514339 
	C329.652527,27.306870 337.126740,45.162750 342.018219,64.029602 
	C347.709808,85.982574 349.805603,108.292130 349.057648,130.922684 
	C348.990723,132.948059 349.734375,135.000214 349.895386,137.343140 
	C340.089691,141.628632 330.104950,144.889557 320.980988,149.762192 
	C307.290375,157.073654 294.203552,165.515640 280.513550,173.289017 
	C280.115143,171.888412 279.753937,170.591614 280.057404,169.475510 
	C284.855225,151.827789 286.820953,133.968124 286.202179,115.609856 
	C285.722961,101.391472 283.673004,87.522583 279.645538,74.060997 
	C276.927307,64.975479 272.290222,56.464054 268.729767,47.432167 
	C281.137665,37.954861 293.326324,28.739906 305.517456,19.528284 
	C309.731720,16.343975 313.952271,13.167997 318.169952,9.988219 
z"/>
    <path fill="#FF8013" opacity="1.000000" stroke="none"
          d="
M350.101624,137.039917 
	C349.734375,135.000214 348.990723,132.948059 349.057648,130.922684 
	C349.805603,108.292130 347.709808,85.982574 342.018219,64.029602 
	C337.126740,45.162750 329.652527,27.306870 321.049469,9.515234 
	C328.628052,11.250549 336.481506,12.732124 343.817047,15.558062 
	C355.298035,19.981005 366.428864,25.313047 377.863220,30.985706 
	C378.197235,32.848385 378.233307,34.030384 378.575745,35.115719 
	C388.005798,65.004822 393.146362,95.516693 391.652039,127.148201 
	C382.176880,129.496109 373.049408,131.645782 363.524719,133.830795 
	C358.785553,134.924057 354.443573,135.981995 350.101624,137.039917 
z"/>
    <path fill="#FF780F" opacity="1.000000" stroke="none"
          d="
M391.999725,126.949966 
	C393.146362,95.516693 388.005798,65.004822 378.575745,35.115719 
	C378.233307,34.030384 378.197235,32.848385 378.029236,31.297289 
	C391.487579,39.877815 404.935059,48.872478 418.691986,58.439980 
	C419.056274,60.338715 418.925720,61.703396 419.193726,62.984707 
	C423.405304,83.120193 425.069824,103.493286 424.575317,124.108810 
	C413.433594,125.106094 402.716644,126.028030 391.999725,126.949966 
z"/>
    <path fill="#563D3A" opacity="1.000000" stroke="none"
          d="
M391.652039,127.148193 
	C402.716644,126.028030 413.433594,125.106094 425.040649,124.163528 
	C433.285309,124.351486 440.639832,124.560066 448.437378,124.846870 
	C456.590942,125.560600 464.301514,126.196114 472.012115,126.831619 
	C478.031433,127.399475 486.407898,136.935379 485.938812,142.896744 
	C485.849823,144.027634 484.876221,145.088928 484.159607,146.514572 
	C484.008423,146.846817 483.910126,146.923782 483.509399,146.968933 
	C473.072144,145.664093 463.035614,144.314087 452.566956,142.893127 
	C443.089752,142.603622 434.044678,142.385056 424.539062,142.103821 
	C413.718903,143.073944 403.359344,144.106735 392.598938,145.103989 
	C383.136505,147.063370 374.074921,149.058273 364.958923,150.634155 
	C364.576996,144.741913 364.249481,139.268677 363.921936,133.795456 
	C373.049408,131.645782 382.176880,129.496109 391.652039,127.148193 
z"/>
    <path fill="#5E4640" opacity="1.000000" stroke="none"
          d="
M318.091370,9.603468 
	C313.952271,13.167997 309.731720,16.343975 305.517456,19.528284 
	C293.326324,28.739906 281.137665,37.954861 268.436707,47.558708 
	C261.017822,53.989319 254.110245,60.029732 246.803436,66.054916 
	C245.123642,66.211929 243.843079,66.384171 241.196640,66.740128 
	C242.167603,59.427410 243.065460,52.665215 243.963318,45.903019 
	C258.199677,34.334576 272.442871,22.774549 286.663696,11.187065 
	C288.450043,9.731529 290.118378,8.131258 292.000366,6.293151 
	C300.582581,1.621563 308.550385,6.133936 316.676025,7.330001 
	C317.202881,7.407548 317.570862,8.564093 318.091370,9.603468 
z"/>
    <path fill="#FF710B" opacity="1.000000" stroke="none"
          d="
M447.994385,124.768654 
	C440.639832,124.560066 433.285309,124.351486 425.465454,124.088181 
	C425.069824,103.493286 423.405304,83.120193 419.193726,62.984707 
	C418.925720,61.703396 419.056274,60.338715 419.002686,58.589836 
	C428.266602,66.871185 437.529266,75.575523 446.773987,84.936874 
	C447.168823,98.652138 447.581604,111.710396 447.994385,124.768654 
z"/>
    <path fill="#FE6A08" opacity="1.000000" stroke="none"
          d="
M448.437378,124.846870 
	C447.581604,111.710396 447.168823,98.652138 446.902710,85.243027 
	C455.861420,96.263275 464.815460,107.530647 473.296753,119.143242 
	C474.300537,120.517632 472.716217,123.782211 472.171875,126.501099 
	C464.301514,126.196114 456.590942,125.560600 448.437378,124.846870 
z"/>
    <path fill="#FF6806" opacity="1.000000" stroke="none"
          d="
M452.999115,142.964081 
	C463.035614,144.314087 473.072144,145.664093 483.518860,147.030640 
	C482.563721,159.028946 482.170868,171.222488 479.617981,182.945648 
	C475.150055,203.462952 470.459900,224.062088 463.789429,243.930832 
	C457.788635,261.804779 448.993500,278.739471 441.464844,296.103180 
	C440.551147,298.210449 439.848694,300.409302 439.071594,302.978394 
	C424.665466,307.244751 410.236053,311.098389 395.446503,314.550964 
	C395.896088,312.712921 396.680573,311.261017 397.519684,309.841461 
	C403.003235,300.564697 408.840698,291.478058 413.921112,281.986023 
	C425.627838,260.113617 434.769867,237.159821 441.373596,213.236526 
	C447.723785,190.231537 451.783295,166.828125 452.999115,142.964081 
z"/>
    <path fill="#604943" opacity="1.000000" stroke="none"
          d="
M243.659576,46.044273 
	C243.065460,52.665215 242.167603,59.427410 241.196640,66.740128 
	C243.843079,66.384171 245.123642,66.211929 246.638474,66.351990 
	C239.172150,74.698883 231.036880,82.366539 223.872314,90.853653 
	C212.990860,103.743706 202.008728,116.672150 192.496246,130.561508 
	C181.926392,145.994781 172.957428,162.524460 163.291504,178.576782 
	C162.860992,175.854782 162.088608,173.135742 162.065109,170.410233 
	C161.998749,162.717621 162.239792,155.022369 162.053452,147.096344 
	C170.646515,133.281418 178.716644,119.053162 188.655807,106.279152 
	C200.973969,90.447556 214.804703,75.789169 228.073257,60.704224 
	C230.371948,58.090878 233.122894,55.875328 235.818573,53.174080 
	C238.433426,50.643265 240.894623,48.414398 243.659576,46.044273 
z"/>
    <path fill="#FF8F1C" opacity="1.000000" stroke="none"
          d="
M163.202271,178.897949 
	C172.957428,162.524460 181.926392,145.994781 192.496246,130.561508 
	C202.008728,116.672150 212.990860,103.743706 223.872314,90.853653 
	C231.036880,82.366539 239.172150,74.698883 247.037720,66.367218 
	C254.110245,60.029732 261.017822,53.989319 268.218445,47.822365 
	C272.290222,56.464054 276.927307,64.975479 279.645538,74.060997 
	C283.673004,87.522583 285.722961,101.391472 286.202179,115.609856 
	C286.820953,133.968124 284.855225,151.827789 280.057404,169.475510 
	C279.753937,170.591614 280.115143,171.888412 280.252502,173.529358 
	C273.563751,179.658340 266.789673,185.359131 260.015594,191.059937 
	C240.326599,208.476456 223.715591,228.544373 211.145447,251.543823 
	C202.995087,266.456451 196.657974,282.372650 189.751434,297.946960 
	C186.582901,305.092010 185.134659,305.998993 177.645660,303.490082 
	C173.097687,301.966492 168.546936,300.451080 163.627655,298.905701 
	C153.629166,294.866577 143.983963,290.892670 134.377304,286.827667 
	C127.579056,283.951019 126.208206,281.688995 128.456711,274.370392 
	C134.730164,253.951126 140.908173,233.481583 148.024658,213.350327 
	C152.158417,201.656631 158.025787,190.575760 163.202271,178.897949 
z"/>
    <path fill="#FF8918" opacity="1.000000" stroke="none"
          d="
M228.926331,316.294800 
	C223.407852,315.217865 217.858078,314.278259 212.379135,313.028137 
	C206.018997,311.576935 204.609451,308.885345 206.759903,302.523804 
	C212.732880,284.854370 220.414490,267.888031 231.063583,252.617416 
	C240.332565,239.325882 250.962082,226.983154 261.397675,213.761658 
	C269.104370,206.802658 276.169067,200.013702 283.752808,193.864944 
	C298.790466,181.672775 314.986267,171.263992 332.958679,164.236572 
	C331.324249,172.260910 330.070404,179.952042 327.952209,187.397263 
	C319.033203,218.746384 303.118073,246.372604 281.632812,270.659546 
	C267.511749,286.622009 251.346054,300.449341 233.275543,311.933563 
	C231.584808,313.008087 230.364868,314.823425 228.926331,316.294800 
z"/>
    <path fill="#FF7E12" opacity="1.000000" stroke="none"
          d="
M365.013306,151.053192 
	C374.074921,149.058273 383.136505,147.063370 392.599060,145.555908 
	C392.774567,163.750412 388.877441,180.822327 384.216949,197.787308 
	C371.398071,244.450500 347.664185,284.790375 314.076416,319.475372 
	C312.853699,320.738007 312.017426,322.374908 310.536194,323.900482 
	C297.090759,323.489502 284.110168,323.015411 271.129608,322.541321 
	C269.986481,322.344147 268.843384,322.146912 267.411438,321.564636 
	C271.786591,317.246307 276.598480,313.474304 281.089691,309.352814 
	C304.415070,287.947784 323.683380,263.379730 337.928711,235.052856 
	C348.856995,213.321915 356.397278,190.377991 360.805054,166.466919 
	C361.607941,162.111526 360.944977,157.485901 361.186523,152.742065 
	C362.614014,152.017120 363.813660,151.535156 365.013306,151.053192 
z"/>
    <path fill="#FF8415" opacity="1.000000" stroke="none"
          d="
M360.958679,152.985031 
	C360.944977,157.485901 361.607941,162.111526 360.805054,166.466919 
	C356.397278,190.377991 348.856995,213.321915 337.928711,235.052856 
	C323.683380,263.379730 304.415070,287.947784 281.089691,309.352814 
	C276.598480,313.474304 271.786591,317.246307 267.063232,321.503601 
	C254.517288,320.130737 242.030716,318.433838 229.235229,316.515869 
	C230.364868,314.823425 231.584808,313.008087 233.275543,311.933563 
	C251.346054,300.449341 267.511749,286.622009 281.632812,270.659546 
	C303.118073,246.372604 319.033203,218.746384 327.952209,187.397263 
	C330.070404,179.952042 331.324249,172.260910 333.178345,163.976807 
	C342.573608,159.842148 351.766144,156.413589 360.958679,152.985031 
z"/>
    <path fill="#FF790F" opacity="1.000000" stroke="none"
          d="
M196.814240,417.093353 
	C195.869690,407.037415 194.925140,396.981506 194.425812,386.454346 
	C197.901047,385.160736 200.990204,384.510010 203.951660,383.488892 
	C228.401581,375.058441 251.111710,363.156281 272.456757,348.642395 
	C275.335571,346.684906 277.502075,343.679840 280.463440,341.096130 
	C295.952271,341.086609 310.976044,341.140808 325.954529,341.537537 
	C325.141632,343.134277 324.609497,344.648529 323.563782,345.595734 
	C319.883362,348.929352 315.990845,352.027222 312.242676,355.287903 
	C293.987122,371.169281 273.820374,384.175537 252.387543,395.311981 
	C234.627411,404.540161 215.907288,411.284027 196.814240,417.093353 
z"/>
    <path fill="#FF6807" opacity="1.000000" stroke="none"
          d="
M385.000549,335.162048 
	C391.072266,333.845978 397.143921,332.529877 403.608948,331.217102 
	C402.677368,333.958832 401.866302,337.141693 399.944366,339.363708 
	C387.266663,354.020691 375.162384,369.304871 361.319519,382.792023 
	C340.870239,402.715759 317.678253,419.283813 292.904755,433.663147 
	C270.676300,446.565308 247.203125,456.433777 222.903168,464.522705 
	C219.131668,465.778137 215.293320,466.832703 211.076691,468.036621 
	C209.102539,463.986969 207.537598,459.880859 206.387512,455.388916 
	C213.494553,453.180542 220.354126,451.817139 226.847778,449.449921 
	C246.828232,442.166260 266.288910,433.709686 284.813965,423.137421 
	C308.237305,409.769714 329.830048,393.903290 349.633728,375.686310 
	C358.663757,367.379700 366.972351,358.250427 375.196686,349.123474 
	C378.975464,344.929993 381.763336,339.843567 385.000549,335.162048 
z"/>
    <path fill="#FF6C08" opacity="1.000000" stroke="none"
          d="
M384.594849,335.105316 
	C381.763336,339.843567 378.975464,344.929993 375.196686,349.123474 
	C366.972351,358.250427 358.663757,367.379700 349.633728,375.686310 
	C329.830048,393.903290 308.237305,409.769714 284.813965,423.137421 
	C266.288910,433.709686 246.828232,442.166260 226.847778,449.449921 
	C220.354126,451.817139 213.494553,453.180542 206.382950,455.005829 
	C204.683914,451.255432 203.404297,447.502319 202.508179,443.322266 
	C211.567566,440.108215 220.349380,437.610199 228.898483,434.477173 
	C250.488342,426.565125 271.343536,416.891388 290.424500,404.085541 
	C306.349640,393.397766 321.687256,381.734985 336.556946,369.611023 
	C345.673553,362.177856 353.487549,353.129272 361.723450,344.647827 
	C363.507263,342.810852 364.592712,340.295715 366.374603,337.972473 
	C368.835419,337.502228 370.921387,337.152496 373.007385,336.802765 
	C376.734650,336.218018 380.461884,335.633301 384.594849,335.105316 
z"/>
    <path fill="#FE8717" opacity="1.000000" stroke="none"
          d="
M117.341331,360.992401 
	C118.375420,346.975769 119.372070,332.956177 120.473824,318.944855 
	C120.706169,315.990021 121.152855,313.027222 121.799782,310.134979 
	C123.107788,304.287170 125.903641,302.704010 131.528290,304.781128 
	C141.453476,308.446381 151.309097,312.299988 161.578430,316.107239 
	C165.988007,317.628906 170.020950,319.097015 174.036270,320.611877 
	C181.112747,323.281677 182.045624,325.231110 180.708771,332.741791 
	C179.546951,339.269104 178.736496,345.858948 177.159973,352.767517 
	C157.111221,357.979401 137.417419,360.922363 117.341331,360.992401 
z"/>
    <path fill="#FE7F13" opacity="1.000000" stroke="none"
          d="
M279.998383,341.159851 
	C277.502075,343.679840 275.335571,346.684906 272.456757,348.642395 
	C251.111710,363.156281 228.401581,375.058441 203.951660,383.488892 
	C200.990204,384.510010 197.901047,385.160736 194.480515,385.991577 
	C193.143570,369.141418 194.626816,352.473083 197.809952,335.911987 
	C198.761429,330.961670 201.563751,329.035736 206.309036,329.896698 
	C215.277451,331.523865 224.175491,333.583130 233.180054,334.956055 
	C245.475037,336.830658 257.842224,338.231628 271.015106,339.876282 
	C274.567291,340.331268 277.282837,340.745544 279.998383,341.159851 
z"/>
    <path fill="#FF700B" opacity="1.000000" stroke="none"
          d="
M365.999756,338.092957 
	C364.592712,340.295715 363.507263,342.810852 361.723450,344.647827 
	C353.487549,353.129272 345.673553,362.177856 336.556946,369.611023 
	C321.687256,381.734985 306.349640,393.397766 290.424500,404.085541 
	C271.343536,416.891388 250.488342,426.565125 228.898483,434.477173 
	C220.349380,437.610199 211.567566,440.108215 202.519287,442.946045 
	C201.117188,438.928192 200.087509,434.859650 199.497650,430.395142 
	C201.721100,429.684448 203.596207,429.622253 205.273743,429.014587 
	C217.591965,424.552643 230.053864,420.419159 242.127792,415.363708 
	C279.839386,399.573700 312.429169,376.096130 341.639496,347.747925 
	C343.827576,345.624420 345.231293,342.692688 347.415222,340.051392 
	C353.887146,339.341705 359.943451,338.717316 365.999756,338.092957 
z"/>
    <path fill="#FE8013" opacity="1.000000" stroke="none"
          d="
M117.247620,361.453766 
	C137.417419,360.922363 157.111221,357.979401 176.981003,353.123657 
	C177.063782,366.423492 176.714737,379.713501 175.891922,393.487000 
	C174.107254,394.087952 172.771072,394.081085 171.489258,394.341644 
	C153.893204,397.918640 136.188675,400.443115 118.167206,399.998199 
	C117.829445,387.303833 117.491676,374.609497 117.247620,361.453766 
z"/>
    <path fill="#FF740C" opacity="1.000000" stroke="none"
          d="
M346.999634,340.136719 
	C345.231293,342.692688 343.827576,345.624420 341.639496,347.747925 
	C312.429169,376.096130 279.839386,399.573700 242.127792,415.363708 
	C230.053864,420.419159 217.591965,424.552643 205.273743,429.014587 
	C203.596207,429.622253 201.721100,429.684448 199.529449,429.998627 
	C198.364822,425.979218 197.608231,421.960327 196.832947,417.517395 
	C215.907288,411.284027 234.627411,404.540161 252.387543,395.311981 
	C273.820374,384.175537 293.987122,371.169281 312.242676,355.287903 
	C315.990845,352.027222 319.883362,348.929352 323.563782,345.595734 
	C324.609497,344.648529 325.141632,343.134277 326.417328,341.466064 
	C333.616791,340.746918 340.308197,340.441803 346.999634,340.136719 
z"/>
    <path fill="#5C443F" opacity="1.000000" stroke="none"
          d="
M361.186523,152.742065 
	C351.766144,156.413589 342.573608,159.842148 333.161407,163.530472 
	C314.986267,171.263992 298.790466,181.672775 283.752808,193.864944 
	C276.169067,200.013702 269.104370,206.802658 261.482544,213.456329 
	C260.782928,206.372513 260.405731,199.134521 260.022095,191.478226 
	C266.789673,185.359131 273.563751,179.658340 280.598938,173.717224 
	C294.203552,165.515640 307.290375,157.073654 320.980988,149.762192 
	C330.104950,144.889557 340.089691,141.628632 349.895386,137.343140 
	C354.443573,135.981995 358.785553,134.924057 363.524719,133.830795 
	C364.249481,139.268677 364.576996,144.741913 364.958923,150.634155 
	C363.813660,151.535156 362.614014,152.017120 361.186523,152.742065 
z"/>
    <path fill="#FE780F" opacity="1.000000" stroke="none"
          d="
M118.114990,400.426819 
	C136.188675,400.443115 153.893204,397.918640 171.489258,394.341644 
	C172.771072,394.081085 174.107254,394.087952 175.874390,393.951172 
	C177.580612,404.664185 178.830566,415.396545 179.660126,426.571838 
	C160.433975,431.272644 141.345078,433.214325 122.114746,433.999329 
	C121.088036,426.708557 119.996193,419.426086 119.061691,412.123505 
	C118.583405,408.386078 118.386726,404.612610 118.114990,400.426819 
z"/>
    <path fill="#5B433E" opacity="1.000000" stroke="none"
          d="
M347.415222,340.051392 
	C340.308197,340.441803 333.616791,340.746918 326.462585,341.123535 
	C310.976044,341.140808 295.952271,341.086609 280.463440,341.096130 
	C277.282837,340.745544 274.567291,340.331268 271.429688,339.826508 
	C271.022858,334.343231 271.038055,328.950378 271.091431,323.049438 
	C284.110168,323.015411 297.090759,323.489502 311.000854,323.963989 
	C326.619507,323.012573 341.308563,322.060730 356.444275,321.131836 
	C362.262604,320.502808 367.634338,319.850861 373.006042,319.198914 
	C373.004944,324.765045 373.003845,330.331238 373.005066,336.350098 
	C370.921387,337.152496 368.835419,337.502228 366.374573,337.972473 
	C359.943451,338.717316 353.887146,339.341705 347.415222,340.051392 
z"/>
    <path fill="#FE710B" opacity="1.000000" stroke="none"
          d="
M122.071991,434.424072 
	C141.345078,433.214325 160.433975,431.272644 179.652802,427.006470 
	C181.927826,434.420990 183.789749,441.843842 185.705414,449.638123 
	C173.235153,452.008057 160.732864,454.159210 148.178635,455.945282 
	C141.165253,456.943085 134.065643,457.334839 126.582909,458.000000 
	C124.783699,450.283112 123.406464,442.565948 122.071991,434.424072 
z"/>
    <path fill="#FF710B" opacity="1.000000" stroke="none"
          d="
M373.427490,319.121216 
	C367.634338,319.850861 362.262604,320.502808 356.475220,320.768311 
	C356.736969,319.066681 357.215820,317.592987 358.120697,316.459351 
	C384.430450,283.497467 403.170319,246.651001 414.422028,206.049225 
	C420.210999,185.159561 424.343414,163.935379 424.999634,142.166473 
	C434.044678,142.385056 443.089752,142.603622 452.566956,142.893127 
	C451.783295,166.828125 447.723785,190.231537 441.373596,213.236526 
	C434.769867,237.159821 425.627838,260.113617 413.921112,281.986023 
	C408.840698,291.478058 403.003235,300.564697 397.519684,309.841461 
	C396.680573,311.261017 395.896088,312.712921 395.043732,314.492615 
	C387.950378,316.238068 380.899628,317.640778 373.427490,319.121216 
z"/>
    <path fill="#FE8717" opacity="1.000000" stroke="none"
          d="
M99.846207,366.536957 
	C74.854698,366.947296 51.224216,360.540619 27.944386,352.421478 
	C27.338369,352.210144 26.824306,351.735138 26.056320,351.068604 
	C27.484877,348.103729 28.933891,345.310669 30.794468,342.825775 
	C44.721420,324.225525 55.964764,304.159912 64.508614,282.534668 
	C65.711098,279.491089 68.397247,277.033691 70.698639,274.139771 
	C73.019730,274.661011 75.194733,275.065857 77.031075,276.082397 
	C85.155304,280.579803 93.130348,285.347260 101.265869,289.823486 
	C105.416756,292.107330 106.563927,295.409119 105.788895,299.819336 
	C101.937576,321.734558 100.028046,343.824890 99.846207,366.536957 
z"/>
    <path fill="#FF780F" opacity="1.000000" stroke="none"
          d="
M424.539062,142.103821 
	C424.343414,163.935379 420.210999,185.159561 414.422028,206.049225 
	C403.170319,246.651001 384.430450,283.497467 358.120697,316.459351 
	C357.215820,317.592987 356.736969,319.066681 356.028595,320.745361 
	C341.308563,322.060730 326.619507,323.012573 311.465729,323.900879 
	C312.017426,322.374908 312.853699,320.738007 314.076416,319.475372 
	C347.664185,284.790375 371.398071,244.450500 384.216949,197.787308 
	C388.877441,180.822327 392.774567,163.750412 392.999878,145.591446 
	C403.359344,144.106735 413.718903,143.073944 424.539062,142.103821 
z"/>
</svg>