<svg version="1.1" id="Layer_1" xmlns="http://www.w3.org/2000/svg" x="0px"
	 y="0px"
	 width="100%" viewBox="0 0 512 512" enable-background="new 0 0 512 512" xml:space="preserve">


<path fill="#A2E5FC" opacity="1.000000" stroke="none"
      d="
M187.876007,107.525764 
	C200.230804,87.423584 216.384125,70.767906 234.789307,56.223022 
	C239.612411,52.411518 244.443924,49.007774 240.445709,41.873524 
	C246.234573,38.376930 251.585617,35.144791 257.215698,31.744104 
	C261.392212,37.559212 266.155853,36.128799 271.677490,33.616131 
	C318.313385,12.394120 365.893707,8.567142 413.128418,30.240576 
	C463.584961,53.392315 491.524048,94.276443 496.798828,149.146042 
	C502.839691,211.984787 478.395721,263.445343 433.015320,305.818146 
	C418.576263,319.300262 402.498077,330.479889 384.295715,338.381744 
	C382.213898,339.285522 379.877350,339.607391 377.653717,340.178802 
	C370.591919,341.993561 363.027069,342.753143 356.576569,345.841827 
	C345.696045,351.051605 334.230438,352.182281 322.680695,352.886688 
	C300.910583,354.214478 279.099335,354.853394 257.311218,355.903687 
	C238.466949,356.812073 219.940979,359.770844 201.265366,364.713989 
	C198.809235,359.919464 196.894669,355.459595 195.276001,350.777527 
	C199.384705,349.434967 203.185684,348.272308 207.012848,347.203430 
	C214.015991,345.247528 218.576187,340.895660 220.129745,333.717346 
	C221.742035,326.267639 218.894867,320.568207 213.254288,315.713379 
	C208.614731,311.720123 203.840408,307.666718 200.124847,302.866699 
	C194.337189,295.389740 187.502258,291.880310 178.094482,293.573395 
	C177.960739,291.987244 177.872162,290.827332 177.730881,289.673828 
	C175.840317,274.238007 173.001480,258.845886 172.296478,243.356552 
	C171.504990,225.967133 172.384537,208.480988 173.001328,191.053360 
	C173.771622,169.288879 177.588409,147.940018 182.830322,126.830185 
	C184.304230,120.894508 185.617676,114.918983 187.004730,108.961739 
	C187.004730,108.961739 187.019440,109.009956 187.258408,108.849472 
	C187.623596,108.301247 187.749802,107.913506 187.876007,107.525764 
M424.678314,285.181976 
	C461.647858,248.424606 479.748444,204.563736 474.082916,152.082306 
	C467.436584,90.514870 414.885162,41.829163 352.877045,38.946301 
	C311.919220,37.042107 275.369385,48.871849 244.275879,75.192650 
	C198.610886,113.848267 176.831345,162.889389 186.012177,223.129913 
	C195.126801,282.936035 247.563507,328.091278 308.044342,330.070496 
	C353.049774,331.543335 391.413696,316.042969 424.678314,285.181976 
z"/>
    <path fill="#9BD981" opacity="1.000000" stroke="none"
          d="
M356.006348,414.112366 
	C370.152039,404.657532 380.003204,392.047485 383.458771,375.186981 
	C384.776184,368.759064 384.811829,362.068481 385.475250,355.035461 
	C396.217590,354.780640 406.472504,357.666199 415.810669,363.479431 
	C420.633209,366.481567 424.916931,367.449554 429.565979,362.607178 
	C433.932953,367.613983 438.130371,372.426453 442.629730,377.585083 
	C437.197540,381.798004 437.862244,386.308441 440.311768,391.557648 
	C443.766937,398.961975 445.584686,406.860535 444.918457,415.405182 
	C427.040924,413.952026 411.312866,418.495544 397.988770,430.214233 
	C384.679138,441.920258 378.127350,456.935638 377.365387,474.990051 
	C374.456848,474.329346 372.067169,473.786469 369.175781,472.872253 
	C368.350525,472.498108 368.026978,472.495392 367.703430,472.492645 
	C367.703430,472.492645 367.610016,472.472137 367.719910,472.060059 
	C367.450287,470.231567 367.210754,468.759125 366.669983,467.407166 
	C359.825806,450.296844 356.547058,432.480225 356.006348,414.112366 
z"/>
    <path fill="#59D3FC" opacity="1.000000" stroke="none"
          d="
M186.705811,109.130981 
	C185.617676,114.918983 184.304230,120.894508 182.830322,126.830185 
	C177.588409,147.940018 173.771622,169.288879 173.001328,191.053360 
	C172.384537,208.480988 171.504990,225.967133 172.296478,243.356552 
	C173.001480,258.845886 175.840317,274.238007 177.730881,289.673828 
	C177.872162,290.827332 177.960739,291.987244 177.855988,293.828125 
	C171.857788,296.893219 168.356003,301.155060 166.714828,307.185791 
	C164.408737,315.659790 161.757248,324.040344 159.485413,332.522980 
	C155.671600,346.763062 167.218872,358.202118 181.550537,354.503143 
	C186.030045,353.346985 190.503723,352.168152 194.980087,350.999695 
	C196.894669,355.459595 198.809235,359.919464 200.867432,364.704407 
	C189.345490,369.728241 177.679932,374.427063 165.876083,379.181580 
	C158.074753,366.642303 147.742462,355.899078 134.687241,348.126953 
	C138.774017,338.119568 143.309509,328.161255 146.944458,317.884460 
	C155.757339,292.968475 157.856155,266.965057 159.100540,240.775970 
	C160.245209,216.685776 161.427307,192.543228 164.130905,168.597366 
	C166.544647,147.218872 174.983200,127.568504 186.705811,109.130981 
z"/>
    <path fill="#FC7A6E" opacity="1.000000" stroke="none"
          d="
M98.154533,418.845398 
	C90.490501,411.215942 83.076401,403.836548 76.323593,397.115356 
	C86.797531,386.106781 96.474731,374.864594 107.324997,364.899689 
	C114.833221,358.004120 127.161118,359.300049 134.839935,366.250458 
	C139.400955,370.378815 143.794617,374.737488 147.886368,379.328735 
	C154.995773,387.306000 155.651001,399.939392 148.411301,407.718689 
	C138.687393,418.167389 128.057587,427.773041 117.349541,438.195190 
	C111.225540,432.021210 104.815002,425.558319 98.154533,418.845398 
z"/>
    <path fill="#F75647" opacity="1.000000" stroke="none"
          d="
M74.773972,481.835754 
	C68.200684,488.447327 62.260323,495.209290 52.774658,497.210602 
	C40.005814,499.904602 26.817823,494.386261 20.190689,483.143494 
	C13.549879,471.877502 14.885472,457.560150 23.670755,447.860657 
	C27.018106,444.164978 30.701153,440.773315 34.874065,436.600159 
	C37.497486,439.380615 40.017799,442.175964 42.669556,444.840485 
	C53.245716,455.467438 63.850067,466.066528 74.478706,476.640991 
	C76.063095,478.217285 77.903351,479.599243 74.773972,481.835754 
z"/>
    <path fill="#6CC647" opacity="1.000000" stroke="none"
          d="
M355.665771,414.186157 
	C356.547058,432.480225 359.825806,450.296844 366.669983,467.407166 
	C367.210754,468.759125 367.450287,470.231567 367.674805,472.044189 
	C346.234497,467.427887 327.090149,444.923553 325.689789,422.804535 
	C336.135040,422.076233 346.215820,419.757507 355.665771,414.186157 
z"/>
    <path fill="#99D680" opacity="1.000000" stroke="none"
          d="
M402.740417,446.783905 
	C413.386963,434.441833 426.562622,429.225677 442.410706,430.336639 
	C441.871368,449.580658 416.754883,471.995270 392.715088,474.617950 
	C392.595795,464.148804 396.211548,455.146759 402.740417,446.783905 
z"/>
    <path fill="#E9E7F7" opacity="1.000000" stroke="none"
          d="
M61.849373,409.936157 
	C62.235840,409.406586 62.582108,408.840546 63.020027,408.357635 
	C63.459927,407.872528 63.991055,407.470154 64.270241,407.220825 
	C78.396088,421.428711 92.441559,435.555756 106.796539,449.994110 
	C102.369423,454.354004 97.530167,459.119720 92.228241,463.698608 
	C91.071754,462.807953 90.474815,461.958954 89.669777,461.421875 
	C74.939568,451.595245 66.537727,437.702820 63.355556,420.478210 
	C62.711216,416.990479 62.344231,413.451508 61.849373,409.936157 
z"/>
    <path fill="#6CC646" opacity="1.000000" stroke="none"
          d="
M357.058746,393.568268 
	C349.368134,402.280334 337.577332,407.439606 325.200531,407.211670 
	C329.122742,384.457001 341.335205,368.505219 362.714142,359.644958 
	C361.047577,371.189209 359.053162,382.378754 357.058746,393.568268 
z"/>
    <path fill="#D9D9F8" opacity="1.000000" stroke="none"
          d="
M61.536491,410.047455 
	C62.344231,413.451508 62.711216,416.990479 63.355556,420.478210 
	C66.537727,437.702820 74.939568,451.595245 89.669777,461.421875 
	C90.474815,461.958954 91.071754,462.807953 91.914352,463.825073 
	C90.778145,465.583649 89.493156,467.028961 88.491035,468.156128 
	C74.198021,453.857788 60.192856,439.847382 45.697300,425.346436 
	C50.601856,420.548828 55.912727,415.353790 61.536491,410.047455 
z"/>
    <path fill="#97D37D" opacity="1.000000" stroke="none"
          d="
M357.371826,393.390991 
	C359.053162,382.378754 361.047577,371.189209 363.068298,359.613892 
	C365.061829,358.472839 367.029053,357.717590 369.577606,356.739136 
	C370.938721,371.112183 367.055084,383.039978 357.371826,393.390991 
z"/>
    <path fill="#59D3FC" opacity="1.000000" stroke="none"
          d="
M187.604462,107.686935 
	C187.749802,107.913506 187.623596,108.301247 187.234024,108.855850 
	C187.091415,108.631172 187.212158,108.239632 187.604462,107.686935 
z"/>
    <path fill="#6CC647" opacity="1.000000" stroke="none"
          d="
M367.865845,472.676086 
	C368.026978,472.495392 368.350525,472.498108 368.832947,472.709351 
	C368.991821,472.917816 368.504456,472.980713 368.504456,472.980713 
	C368.504456,472.980713 368.028259,472.859528 367.865845,472.676086 
z"/>


</svg>