<svg version="1.1" id="Layer_1" xmlns="http://www.w3.org/2000/svg" xmlns:xlink="http://www.w3.org/1999/xlink" x="0px" y="0px"
	 width="100%" viewBox="0 0 512 512" enable-background="new 0 0 512 512" xml:space="preserve">
<path fill="#000000" opacity="1.000000" stroke="none" 
	d="
M234.000000,1.000000 
	C251.354233,1.000000 268.708466,1.000000 286.818420,1.201216 
	C289.903778,3.288653 292.717163,2.272366 295.289551,2.701841 
	C321.455688,7.070426 346.735443,14.433510 370.525238,26.246578 
	C401.386078,41.570839 428.112213,62.302254 450.848724,88.306870 
	C465.611938,105.192131 478.006195,123.608269 487.832336,143.648148 
	C498.097382,164.583130 505.344818,186.614807 509.594086,209.638397 
	C510.661316,215.420898 510.216156,221.549500 513.000000,227.000000 
	C513.000000,244.687561 513.000000,262.375122 512.999512,280.931091 
	C511.658997,290.629913 510.690399,299.536011 508.909821,308.276703 
	C503.402344,335.312164 493.909973,360.886261 480.189545,384.884308 
	C464.588501,412.171631 444.266174,435.538208 420.325745,455.634674 
	C401.821472,471.167786 381.278412,483.712891 358.926239,493.165955 
	C341.459534,500.552826 323.467377,506.042725 304.819885,509.560608 
	C299.535767,510.557495 293.977112,510.527008 289.000000,513.000000 
	C267.979095,513.000000 246.958206,513.000000 225.252594,512.739380 
	C218.589828,511.406250 212.577576,510.494781 206.639404,509.234375 
	C175.513794,502.627655 146.216934,491.459473 119.320412,474.240906 
	C95.321861,458.877625 74.559570,439.948181 56.605263,417.887512 
	C41.531525,399.366211 29.298656,379.114044 20.090534,357.076691 
	C12.974183,340.045502 7.726059,322.465332 4.382273,304.273590 
	C3.445523,299.177246 3.921090,293.679749 1.000000,289.000000 
	C1.000000,270.979095 1.000000,252.958206 1.000500,234.065903 
	C2.265095,225.357864 3.035600,217.463547 4.446640,209.629532 
	C10.203863,177.665848 21.852200,148.045914 38.982674,120.535797 
	C55.592552,93.861717 76.702782,71.230438 101.586281,52.173698 
	C126.504074,33.090694 154.067825,19.135988 184.298126,10.408087 
	C200.597855,5.702130 217.171814,2.756660 234.000000,1.000000 
M72.376785,177.348587 
	C73.633461,182.669662 75.153229,187.946487 76.058220,193.326721 
	C76.707008,197.183838 78.706627,198.932877 82.266273,200.100586 
	C107.034630,208.225616 131.810913,216.337631 156.426941,224.906799 
	C161.549744,226.690109 165.122528,225.857208 169.045944,222.690170 
	C193.707718,202.782715 218.439377,182.961716 243.188721,163.163101 
	C245.431732,161.368774 246.663177,159.397461 246.655167,156.413391 
	C246.587158,131.094604 246.562912,105.775314 246.680389,80.456886 
	C246.697067,76.865051 245.184387,74.865944 242.079224,73.634468 
	C216.010574,63.295940 189.924408,53.000862 163.903595,42.543186 
	C160.365601,41.121273 157.481110,41.328548 154.054153,42.996796 
	C139.064911,50.293587 124.941025,58.881187 111.735085,69.099075 
	C92.394424,84.063599 75.836723,101.591827 61.736061,121.521278 
	C60.332024,123.505692 60.136868,125.494995 60.648438,127.659210 
	C64.499771,143.952484 68.385666,160.237610 72.376785,177.348587 
M301.254547,61.987350 
	C291.850861,65.770126 282.506287,69.710693 273.016602,73.263786 
	C268.778656,74.850540 267.249237,77.290169 267.285400,81.837120 
	C267.478851,106.163689 267.439117,130.492920 267.315430,154.820374 
	C267.294983,158.843658 268.313812,161.676102 271.865540,164.014664 
	C276.145386,166.832611 279.920197,170.412811 283.944214,173.624725 
	C305.229889,190.614502 326.551666,207.559265 347.778168,224.622574 
	C350.023651,226.427658 351.907928,226.652466 354.591919,225.745926 
	C380.410339,217.025436 406.263947,208.408218 432.142609,199.867981 
	C435.350861,198.809219 436.988708,197.030411 437.760864,193.688354 
	C442.839661,171.706085 448.103760,149.766617 453.304932,127.812607 
	C453.824707,125.618690 453.638184,123.630653 452.272766,121.653992 
	C446.508789,113.309448 440.361694,105.227875 433.496002,97.805328 
	C412.169373,74.748985 387.569763,56.013107 359.080719,42.524876 
	C356.107330,41.117130 353.614960,41.046223 350.573151,42.281254 
	C334.408051,48.844650 318.161987,55.208675 301.254547,61.987350 
M76.471031,219.463028 
	C72.969078,217.992874 70.442780,219.400238 68.205238,222.090347 
	C54.944412,238.033539 41.871189,254.141724 28.251165,269.772949 
	C22.564831,276.298981 19.598314,282.560394 21.289719,291.624847 
	C27.164726,323.109802 37.276333,352.895233 53.790920,380.466888 
	C56.815544,385.516602 60.664909,387.796783 66.259644,388.633698 
	C89.339027,392.086121 112.385048,395.763275 135.432724,399.424591 
	C139.171509,400.018524 141.983475,399.376526 144.438843,396.032532 
	C155.936508,380.373718 167.648392,364.871979 179.316269,349.338531 
	C181.128235,346.926270 181.652176,344.613525 180.854614,341.480255 
	C173.326599,311.906097 165.920441,282.299988 158.706985,252.647659 
	C157.595367,248.078156 155.433182,245.707657 150.909393,244.237228 
	C126.281052,236.231903 101.759293,227.898666 76.471031,219.463028 
M482.450806,266.017181 
	C480.908783,264.274078 479.317261,262.572083 477.832703,260.781342 
	C467.146027,247.890503 456.463257,234.996307 445.822693,222.067459 
	C443.433533,219.164490 440.823669,218.290405 437.071930,219.561417 
	C411.912994,228.084686 386.713196,236.488571 361.484528,244.803299 
	C358.290894,245.855804 356.501556,247.597305 355.699127,250.851593 
	C348.192902,281.294373 340.646912,311.727600 332.975555,342.129028 
	C332.324768,344.708038 332.732666,346.718079 334.203217,348.648346 
	C346.364685,364.611694 358.619476,380.504639 370.672180,396.549500 
	C372.698944,399.247559 375.010468,399.939026 377.992981,399.500336 
	C382.574524,398.826477 387.145172,398.078552 391.719330,397.354797 
	C410.187469,394.432861 428.678375,391.642456 447.102814,388.466888 
	C450.631989,387.858582 455.101562,388.788788 457.436157,384.744568 
	C461.920837,376.975800 466.665253,369.326813 470.643433,361.301697 
	C480.732361,340.949341 487.404816,319.422852 491.477081,297.095551 
	C493.122803,288.072266 496.040253,278.782104 487.132111,271.457947 
	C485.482239,270.101440 484.230194,268.261108 482.450806,266.017181 
M205.573456,485.963867 
	C206.973038,487.804352 208.106842,490.017365 210.672211,490.455017 
	C220.941101,492.206879 231.227524,494.137665 241.633102,494.522339 
	C263.570557,495.333282 285.422424,494.419739 306.959625,489.553619 
	C310.871613,488.669708 313.723633,487.095612 315.850250,483.281097 
	C328.065430,461.370880 340.440857,439.545624 353.141998,417.914734 
	C355.515869,413.871796 356.005157,411.100006 353.058990,407.307373 
	C341.350464,392.235046 329.863678,376.990479 318.299164,361.806335 
	C316.577179,359.545410 314.422241,358.385529 311.470520,358.389404 
	C274.996552,358.437195 238.522491,358.438141 202.048508,358.393921 
	C199.261719,358.390564 197.333847,359.518646 195.729172,361.677612 
	C184.242767,377.131866 172.762299,392.590942 161.171738,407.966919 
	C159.189590,410.596466 158.939590,412.714417 160.792770,415.599182 
	C175.690475,438.789703 190.452667,462.067291 205.573456,485.963867 
z"/>
</svg>