<svg version="1.1" id="Layer_1" xmlns="http://www.w3.org/2000/svg" xmlns:xlink="http://www.w3.org/1999/xlink" x="0px" y="0px"
	 width="100%" viewBox="0 0 137 70" enable-background="new 0 0 137 70" xml:space="preserve">
<path fill="#1C2130" opacity="1.000000" stroke="none" 
	d="
M98.000000,71.000000 
	C65.333336,71.000000 33.166668,71.000000 1.000000,71.000000 
	C1.000000,47.666668 1.000000,24.333334 1.000000,1.000000 
	C46.666668,1.000000 92.333336,1.000000 138.000000,1.000000 
	C138.000000,24.333334 138.000000,47.666668 138.000000,71.000000 
	C124.833336,71.000000 111.666664,71.000000 98.000000,71.000000 
M126.002014,57.477886 
	C132.950134,49.874432 132.977737,40.699883 132.356232,31.268494 
	C123.366241,31.268494 114.787575,31.268494 106.320114,31.268494 
	C106.320114,34.961590 106.320114,38.342239 106.320114,42.152954 
	C110.439354,42.152954 114.161018,42.152954 117.920540,42.152954 
	C117.024109,48.434727 114.663025,51.101391 109.418915,52.127338 
	C102.058167,53.567375 96.158798,51.569012 93.403099,46.031265 
	C89.281029,37.747700 89.328026,29.185505 93.853668,21.113747 
	C98.317398,13.152409 110.582069,13.066552 115.846977,20.498596 
	C116.703873,21.708210 118.492599,22.809452 119.942490,22.939919 
	C123.726006,23.280380 127.560486,23.054548 131.613190,23.054548 
	C130.988388,16.893600 128.281021,12.270654 123.910210,8.660460 
	C107.798561,-4.647420 83.152588,2.705479 76.909821,22.607471 
	C74.208908,31.217997 71.441643,39.807709 68.414421,49.318279 
	C67.408813,46.364933 66.663330,44.356201 66.038528,42.310604 
	C62.540363,30.857666 58.958447,19.428127 55.664837,7.916293 
	C54.740898,4.686942 53.457035,3.365169 49.870827,3.486295 
	C40.881744,3.789905 31.875532,3.586515 22.876192,3.586498 
	C17.096571,3.586487 11.316951,3.586496 5.328813,3.586496 
	C5.328813,7.738835 5.328813,11.322229 5.328813,15.516062 
	C11.614819,15.516062 17.678679,15.516062 24.059204,15.516062 
	C24.059204,32.413197 24.059204,48.702381 24.059204,65.027618 
	C29.099257,65.027618 33.793079,65.027618 39.100327,65.027618 
	C39.100327,48.311768 39.100327,31.974958 39.100327,15.638152 
	C39.558693,15.493894 40.017056,15.349635 40.475422,15.205377 
	C41.277275,16.571587 42.338074,17.849264 42.840210,19.317947 
	C47.036858,31.592670 51.127506,43.903618 55.256737,56.201416 
	C58.350376,65.414970 58.354733,65.413506 68.050858,65.413506 
	C78.002373,65.413506 77.998337,65.411949 81.464401,56.416046 
	C81.538246,56.224358 82.018120,56.189106 82.312096,56.090294 
	C95.947266,68.371338 113.200813,69.137817 126.002014,57.477886 
z"/>
<path fill="#FBFBFB" opacity="1.000000" stroke="none" 
	d="
M125.758987,57.743740 
	C113.200813,69.137817 95.947266,68.371338 82.310341,56.085587 
	C82.018120,56.189106 81.538246,56.224358 81.464401,56.416046 
	C77.998337,65.411949 78.002373,65.413506 68.050858,65.413506 
	C58.354733,65.413506 58.350376,65.414970 55.256737,56.201416 
	C51.127506,43.903618 47.036858,31.592670 42.840210,19.317947 
	C42.338074,17.849264 41.277275,16.571587 40.475422,15.205377 
	C40.017056,15.349635 39.558693,15.493894 39.100327,15.638152 
	C39.100327,31.974958 39.100327,48.311768 39.100327,65.027618 
	C33.793079,65.027618 29.099257,65.027618 24.059204,65.027618 
	C24.059204,48.702381 24.059204,32.413197 24.059204,15.516062 
	C17.678679,15.516062 11.614819,15.516062 5.328813,15.516062 
	C5.328813,11.322229 5.328813,7.738835 5.328813,3.586496 
	C11.316951,3.586496 17.096571,3.586487 22.876192,3.586498 
	C31.875532,3.586515 40.881744,3.789905 49.870827,3.486295 
	C53.457035,3.365169 54.740898,4.686942 55.664837,7.916293 
	C58.958447,19.428127 62.540363,30.857666 66.038528,42.310604 
	C66.663330,44.356201 67.408813,46.364933 68.414421,49.318279 
	C71.441643,39.807709 74.208908,31.217997 76.909821,22.607471 
	C83.152588,2.705479 107.798561,-4.647420 123.910210,8.660460 
	C128.281021,12.270654 130.988388,16.893600 131.613190,23.054548 
	C127.560486,23.054548 123.726006,23.280380 119.942490,22.939919 
	C118.492599,22.809452 116.703873,21.708210 115.846977,20.498596 
	C110.582069,13.066552 98.317398,13.152409 93.853668,21.113747 
	C89.328026,29.185505 89.281029,37.747700 93.403099,46.031265 
	C96.158798,51.569012 102.058167,53.567375 109.418915,52.127338 
	C114.663025,51.101391 117.024109,48.434727 117.920540,42.152954 
	C114.161018,42.152954 110.439354,42.152954 106.320114,42.152954 
	C106.320114,38.342239 106.320114,34.961590 106.320114,31.268494 
	C114.787575,31.268494 123.366241,31.268494 132.356232,31.268494 
	C132.977737,40.699883 132.950134,49.874432 125.758987,57.743740 
z"/>
</svg>